<svg version="1.1" xmlns="http://www.w3.org/2000/svg" xmlns:xlink="http://www.w3.org/1999/xlink" width="77.21994" height="51.32298" viewBox="0,0,77.21994,51.32298"><g transform="translate(-201.39003,-154.33851)"><g data-paper-data="{&quot;isPaintingLayer&quot;:true}" fill-rule="nonzero" stroke="none" stroke-linejoin="miter" stroke-miterlimit="10" stroke-dasharray="" stroke-dashoffset="0" style="mix-blend-mode: normal"><path d="M201.39003,205.6428l38.55951,-51.30429l38.66043,51.32298z" fill="#189707" stroke-width="0" stroke-linecap="round"/><path d="M236.61005,198.83464c-1.3325,-0.14098 -1.19151,-1.47348 -1.19151,-1.47348l0.14559,-1.37061c0.085,-1.8035 0.2606,-3.59884 0.47367,-5.39085c-1.06056,0.06343 -2.09467,0.12528 -3.07362,0.18383c0,0 -1.33755,0.08 -1.41755,-1.25755c-0.08,-1.33755 1.25755,-1.41755 1.25755,-1.41755c1.1924,-0.07132 2.38481,-0.14263 3.5772,-0.21395c0.37386,-2.81982 0.77428,-5.63747 0.99341,-8.47192c0,0 0.03386,-0.43687 0.31267,-0.7916c-2.16388,0.04957 -4.32879,0.10554 -6.48657,0.23539c0,0 -1.33755,0.08 -1.41755,-1.25755c-0.08,-1.33755 1.25755,-1.41755 1.25755,-1.41755c4.65139,-0.27659 9.34387,-0.19952 13.9779,-0.48584l0.46523,-0.02782c0,0 1.33755,-0.08 1.41755,1.25755c0.08,1.33755 -1.25755,1.41755 -1.25755,1.41755l-0.46523,0.02782c-1.81859,0.10557 -3.64461,0.16002 -5.47314,0.20405c0.38883,0.42788 0.34101,1.04503 0.34101,1.04503c-0.21045,2.71026 -0.58625,5.40564 -0.94564,8.10223c1.6617,-0.09939 3.32338,-0.19877 4.98508,-0.29816l0.81417,-0.04869c0,0 1.33755,-0.08 1.41755,1.25755c0.08,1.33755 -1.25755,1.41755 -1.25755,1.41755c-1.95833,0.11713 -4.13744,0.24746 -6.30738,0.37724c-0.23262,1.91384 -0.42645,3.83099 -0.51666,5.7572l-0.1527,1.44862c0,0 -0.14098,1.3325 -1.47348,1.19151z" fill="#137306" stroke-width="0.5" stroke-linecap="butt"/><path d="M260.97938,201.53912c0.08,1.33755 -1.25755,1.41755 -1.25755,1.41755l-0.66956,0.02443c-12.53987,-1.20295 -26.2806,-0.39795 -38.87728,0.35652c0,0 -1.33755,0.08 -1.41755,-1.25755c-0.08,-1.33755 1.25755,-1.41755 1.25755,-1.41755c12.76353,-0.76234 26.57385,-1.50365 39.28592,-0.34975l0.26092,-0.0312c0,0 1.33755,-0.08 1.41755,1.25755z" fill="#137306" stroke-width="0.5" stroke-linecap="butt"/><path d="M208.67054,202.98318c-1.15728,-0.67538 -0.48191,-1.83266 -0.48191,-1.83266l0.35104,-0.58247c0.22988,-0.53086 0.45977,-1.0617 0.68965,-1.59255c6.92464,-13.93243 19.72048,-25.72738 29.64265,-37.54076c0,0 0.86182,-1.02601 1.88783,-0.1642c1.02601,0.86181 0.1642,1.88783 0.1642,1.88783c-9.73854,11.59324 -22.52053,23.24272 -29.26316,36.9438c-0.22058,0.51007 -0.44115,1.02014 -0.66173,1.53021l-0.49593,0.86889c0,0 -0.67538,1.15728 -1.83266,0.48191z" fill="#137306" stroke-width="0.5" stroke-linecap="butt"/><path d="M249.98734,187.67845c0.67538,-1.15728 1.83266,-0.48191 1.83266,-0.48191l0.90674,0.55026c3.7971,3.15913 6.7064,8.40893 11.27098,10.31011c0,0 1.23212,0.52661 0.70551,1.75873c-0.52661,1.23212 -1.75874,0.70549 -1.75874,0.70549c-4.94121,-2.15605 -7.82629,-7.30608 -11.93063,-10.71332l-0.5446,-0.29672c0,0 -1.15728,-0.67538 -0.48191,-1.83266z" fill="#137306" stroke-width="0.5" stroke-linecap="butt"/><path d="M233.29308,187.39079c0.81058,1.06696 -0.25638,1.87752 -0.25638,1.87752l-0.29225,0.2049c-4.86901,4.92558 -12.03839,11.06635 -18.85619,12.58985c0,0 -1.30871,0.28762 -1.59634,-1.02108c-0.28762,-1.3087 1.02108,-1.59634 1.02108,-1.59634c6.27052,-1.3518 13.07679,-7.33006 17.52298,-11.85379l0.57956,-0.45746c0,0 1.06696,-0.81057 1.87754,0.25639z" fill="#137306" stroke-width="0.5" stroke-linecap="butt"/><path d="M256.59178,185.7519c-3.02753,0.16871 -6.14825,-0.44468 -9.15235,-0.96647c0.80148,2.11236 1.61982,4.21303 2.35875,6.31499l0.08736,0.597c0,0 0.08,1.33755 -1.25755,1.41755c-1.33755,0.08 -1.41755,-1.25755 -1.41755,-1.25755l0.05953,0.13176c-2.65098,-7.5416 -6.19713,-15.0105 -6.68469,-23.08043c0,0 -0.08,-1.33755 1.25755,-1.41755c1.33755,-0.08 1.41755,1.25755 1.41755,1.25755c0.22131,3.74048 1.14579,7.36011 2.33066,10.91863c0.17609,-0.04239 0.30398,-0.04446 0.30398,-0.04446c2.39626,-0.03875 4.78334,-0.16939 7.17276,-0.31236c-2.77705,-4.52802 -5.84904,-8.9913 -9.55982,-10.96155c0,0 -1.1714,-0.65061 -0.52079,-1.822c0.65061,-1.17139 1.822,-0.52077 1.822,-0.52077c4.56294,2.61562 7.98954,8.01267 11.16334,13.1814c0.40231,0.07761 1.00582,0.34199 1.05875,1.22702c0.01005,0.16797 -0.00226,0.31611 -0.03147,0.44674c0.47867,0.77759 0.95365,1.54219 1.42815,2.28301c0.32463,0.15046 0.64758,0.45533 0.69777,1.07101c0.61365,0.9241 1.22908,1.79966 1.85305,2.60342l1.04948,1.03049c0.06965,0.06778 0.13203,0.14316 0.18577,0.2249c0.7654,1.12192 1.47943,2.2813 2.12729,3.47492l0.31125,0.44205c0,0 0.75675,1.10578 -0.34902,1.86254c-1.10577,0.75677 -1.86254,-0.34902 -1.86254,-0.34902l-0.45616,-0.67931c-0.5855,-1.08357 -1.23186,-2.13582 -1.92517,-3.15395l-1.08422,-1.07261c-0.66103,-0.85081 -1.32455,-1.82198 -1.99672,-2.87009zM254.63244,181.90076c-2.08175,0.12585 -4.16002,0.25357 -6.24229,0.3332c2.28399,0.4104 4.66315,0.86886 6.96839,0.87495c-0.24031,-0.39817 -0.48225,-0.8015 -0.7261,-1.20815z" fill="#137306" stroke-width="0.5" stroke-linecap="butt"/><path d="M237.95821,186.05933c-0.22281,1.32128 -1.54409,1.09847 -1.54409,1.09847l-1.49204,-0.25225c-3.43211,-0.36417 -6.67528,-1.51508 -10.08706,-2.09005c0,0 -1.32128,-0.22281 -1.09847,-1.54409c0.04211,-0.24974 0.12347,-0.44431 0.22773,-0.59566c-0.37135,-0.12864 -0.79071,-0.43623 -0.83443,-1.16727c-0.08,-1.33755 1.25755,-1.41755 1.25755,-1.41755c1.86106,-0.11131 3.70389,-0.23357 5.56895,-0.21294l1.06759,-0.06726c0,0 1.33755,-0.08 1.41755,1.25755c0.08,1.33755 -1.25755,1.41755 -1.25755,1.41755l-1.25858,0.07185c-0.8349,-0.01011 -1.66519,0.01084 -2.49475,0.04691c2.61843,0.59377 5.18321,1.364 7.85544,1.6459l0.41078,0.0691c-0.07679,-0.33135 -0.02296,-0.61864 -0.02296,-0.61864l0.26325,-1.40459c0.80261,-4.76048 1.05879,-9.51484 1.45432,-14.32023c0,0 0.10996,-1.33542 1.44538,-1.22546c1.33542,0.10996 1.22546,1.44538 1.22546,1.44538c-0.40273,4.88894 -0.66972,9.72594 -1.48675,14.56992l-0.26765,1.42856c0,0 -0.10383,0.5541 -0.5362,0.87613c0.16321,0.22884 0.26092,0.54753 0.18653,0.98865z" fill="#137306" stroke-width="0.5" stroke-linecap="butt"/><path d="M268.3704,203.13973l-1.45687,0.07536c-0.9896,-0.07393 -1.98631,-0.10511 -2.97677,-0.04363c0,0 -1.33755,0.08 -1.41755,-1.25755c-0.08,-1.33755 1.25755,-1.41755 1.25755,-1.41755c0.94679,-0.05475 1.8981,-0.04012 2.84561,0.01453c-0.06957,-0.03266 -0.14083,-0.0648 -0.2139,-0.0964c0,0 -1.21784,-0.55885 -0.65899,-1.77668c0.55885,-1.21784 1.77668,-0.65899 1.77668,-0.65899c1.90396,0.91101 2.6283,1.91116 4.32199,3.00361l0.58349,0.64455c0,0 0.8085,1.06853 -0.26003,1.87703c-1.06853,0.8085 -1.87703,-0.26003 -1.87703,-0.26003l0.07652,-0.02548c-0.34147,-0.22978 -0.64235,-0.45867 -0.92204,-0.68375c-0.34934,0.56136 -1.07866,0.60498 -1.07866,0.60498z" fill="#137306" stroke-width="0.5" stroke-linecap="butt"/><path d="M238.06879,170.47752c0.74815,0.13756 1.21962,0.658 1.50913,1.38295c2.64463,-1.9318 6.20454,-1.80001 3.55913,3.68358c-0.26781,0.55513 -0.55369,0.93947 -0.88043,1.27327c3.37122,-0.65593 6.17325,-2.76019 8.36443,-5.78169c0,0 0.71388,-0.96886 1.68275,-0.25497c0.96886,0.7139 0.25497,1.68276 0.25497,1.68276c-3.14992,4.21786 -7.39435,6.97782 -12.58492,6.97782h-0.10465c0,0 -0.03308,0 -0.08827,-0.00549c7.58645,5.55548 13.65171,11.10365 23.78902,11.09935c1.24689,0.10391 2.46672,0.10361 3.71736,0.10361h0.31395c0,0 1.20347,0 1.20347,1.20347c0,1.20347 -1.20347,1.20347 -1.20347,1.20347h-0.31395c-1.28273,0 -2.5385,0.00089 -3.81738,-0.10569c-10.67735,-0.00444 -17.10718,-5.73573 -25.12234,-11.57143l-0.1908,0.31324c-4.67791,1.4988 -8.65049,6.19211 -13.12573,8.40772c-2.9558,1.46337 -7.44441,2.08285 -10.74652,2.527c0,0 -0.52543,0.07007 -0.92536,-0.23152c-0.0899,0.02143 -0.18372,0.03278 -0.28019,0.03278c-0.66465,0 -1.20347,-0.53882 -1.20347,-1.20347c0,-0.66465 0.53882,-1.20347 1.20347,-1.20347c0.2783,0 0.53456,0.09447 0.73841,0.25309c0.09002,-0.02536 0.14903,-0.03323 0.14903,-0.03323c9.4046,-1.24194 14.26764,-7.2656 22.28128,-10.41008c-0.10961,-0.25201 -0.23026,-0.54746 -0.35444,-0.8752c-3.70588,-0.53777 -6.76424,-2.90336 -9.64772,-5.20964c0,0 -0.93975,-0.75179 -0.18795,-1.69154c0.75181,-0.93975 1.69154,-0.18796 1.69154,-0.18796c2.20145,1.76156 4.5797,3.71722 7.3265,4.47052c-0.74998,-3.08414 -0.76016,-6.53932 2.99317,-5.84926zM239.98871,175.48115c-0.00195,0.06362 -0.00414,0.12707 -0.00655,0.1903c0.40717,-0.35342 0.78204,-0.74409 1.01443,-1.22821c0.30166,-0.62841 1.16064,-2.37452 0.56427,-2.01363c-0.62616,0.37892 -1.1185,1.61054 -1.57215,3.05153zM237.25973,175.13245c0.01271,-0.06236 0.02702,-0.12444 0.04286,-0.18621c-0.14148,-1.89234 -0.32756,-1.3677 -0.04286,0.18621z" fill="#ecb339" stroke-width="0.5" stroke-linecap="butt"/></g></g></svg>